<?xml version="1.0" encoding="UTF-8" standalone="no"?>
<!DOCTYPE svg PUBLIC "-//W3C//DTD SVG 1.1//EN" "http://www.w3.org/Graphics/SVG/1.1/DTD/svg11.dtd">
<!-- Generated by Microsoft Visio, SVG Export MessagesIcon.svg Page-1 -->
<svg xmlns="http://www.w3.org/2000/svg" xmlns:xlink="http://www.w3.org/1999/xlink" xmlns:ev="http://www.w3.org/2001/xml-events"
		width="0.244732in" height="0.244626in" viewBox="0 0 17.6207 17.6131" xml:space="preserve"
		color-interpolation-filters="sRGB" class="st3">
	<style type="text/css">
	<![CDATA[
		.st1 {fill:none;stroke:#000000;stroke-linecap:butt;stroke-width:1.30425}
		.st2 {fill:#000000;stroke:none;stroke-linecap:butt;stroke-width:0.75}
		.st3 {fill:none;fill-rule:evenodd;font-size:12px;overflow:visible;stroke-linecap:square;stroke-miterlimit:3}
	]]>
	</style>

	<g>
		<title>Page-1</title>
		<g id="shape3-1" transform="translate(1.29183,-1.29862)">
			<title>Sheet.3</title>
			<path d="M7.51 2.61 C8.49 2.58 9.46 2.74 10.37 3.09 C11.28 3.44 12.11 3.98 12.81 4.65 C13.51 5.33 14.07 6.15 14.45 7.04
						 C14.83 7.94 15.02 8.91 15.02 9.88 C15.02 10.86 14.83 11.82 14.45 12.72 C14.07 13.62 13.51 14.43 12.81 15.11
						 C12.11 15.79 11.28 16.32 10.37 16.67 C9.46 17.02 8.49 17.19 7.51 17.16 C6.78 17.16 6.05 17.06 5.34 16.87
						 C5.21 16.83 5.07 16.84 4.94 16.9 L3.45 17.56 C3.36 17.6 3.26 17.61 3.17 17.61 C3.07 17.6 2.97 17.57 2.89
						 17.51 C2.81 17.46 2.74 17.39 2.69 17.31 C2.64 17.22 2.61 17.12 2.61 17.03 L2.57 15.69 C2.57 15.61 2.55 15.53
						 2.51 15.46 C2.48 15.38 2.43 15.32 2.37 15.26 C1.62 14.59 1.02 13.76 0.61 12.83 C0.2 11.9 0 10.9 0.01 9.88
						 C0.01 8.91 0.2 7.94 0.58 7.04 C0.95 6.14 1.51 5.32 2.21 4.65 C2.91 3.97 3.74 3.43 4.65 3.08 C5.56 2.73 6.54
						 2.57 7.51 2.61 Z" class="st1"/>
		</g>
		<g id="shape4-3" transform="translate(4.37419,-6.63667)">
			<title>Sheet.4</title>
			<path d="M8.77 14.04 C8.83 13.95 8.86 13.83 8.84 13.71 C8.83 13.6 8.77 13.49 8.69 13.41 C8.6 13.33 8.49 13.29 8.37 13.28
						 C8.25 13.28 8.14 13.32 8.05 13.39 L6.13 14.93 C6.05 14.99 5.95 15.02 5.85 15.02 C5.75 15.02 5.65 14.99 5.56
						 14.93 L3.72 13.55 C3.59 13.45 3.44 13.38 3.28 13.34 C3.12 13.31 2.96 13.3 2.8 13.33 C2.64 13.36 2.49 13.42
						 2.35 13.51 C2.22 13.61 2.1 13.72 2.01 13.86 L0.09 16.85 C0.03 16.95 0 17.06 0.02 17.18 C0.03 17.29 0.09
						 17.4 0.17 17.48 C0.26 17.56 0.37 17.6 0.49 17.61 C0.6 17.61 0.72 17.58 0.81 17.5 L2.73 15.97 C2.81 15.9
						 2.91 15.87 3.01 15.87 C3.11 15.87 3.21 15.9 3.3 15.97 L5.14 17.35 C5.27 17.44 5.42 17.51 5.57 17.55 C5.73
						 17.59 5.9 17.59 6.06 17.56 C6.22 17.53 6.37 17.47 6.51 17.38 C6.64 17.29 6.76 17.17 6.84 17.03 L8.77 14.04
						 Z" class="st2"/>
		</g>
	</g>
</svg>
