<?xml version="1.0" encoding="UTF-8" standalone="no"?>
<!DOCTYPE svg PUBLIC "-//W3C//DTD SVG 1.1//EN" "http://www.w3.org/Graphics/SVG/1.1/DTD/svg11.dtd">
<!-- Generated by Microsoft Visio, SVG Export NotificationIcon.svg Page-1 -->
<svg xmlns="http://www.w3.org/2000/svg" xmlns:xlink="http://www.w3.org/1999/xlink" xmlns:ev="http://www.w3.org/2001/xml-events"
		width="1.26427in" height="1.11225in" viewBox="0 0 91.0272 80.082" xml:space="preserve" color-interpolation-filters="sRGB"
		class="st2">
	<style type="text/css">
	<![CDATA[
		.st1 {fill:#000000;stroke:none;stroke-linecap:butt;stroke-width:0.75}
		.st2 {fill:none;fill-rule:evenodd;font-size:12px;overflow:visible;stroke-linecap:square;stroke-miterlimit:3}
	]]>
	</style>

	<g>
		<title>Page-1</title>
		<g id="shape8-1" transform="translate(0.520682,-0.75)">
			<title>Sheet.8</title>
			<path d="M63.64 9.29 C68.75 9.58 73.55 11.87 76.98 15.67 C80.41 19.48 82.2 24.48 81.96 29.6 C81.96 41.55 71.64 48.89
						 61.74 57.7 C51.96 66.43 46.7 71.2 44.99 72.3 C43.14 71.1 36.65 65.21 28.25 57.7 C18.3 48.86 8.03 41.45 8.03
						 29.6 C7.78 24.48 9.57 19.48 13.01 15.67 C16.44 11.87 21.23 9.58 26.35 9.29 C29.18 9.21 31.99 9.86 34.49
						 11.18 C37 12.51 39.12 14.46 40.65 16.85 C43.92 21.42 44.46 23.71 45 23.71 C45.55 23.71 46.09 21.42 49.32
						 16.84 C50.84 14.44 52.96 12.48 55.47 11.15 C57.99 9.83 60.8 9.19 63.64 9.29 ZM63.64 1.51 C60.11 1.4 56.59
						 2.08 53.36 3.52 C50.13 4.95 47.26 7.09 44.97 9.79 C42.69 7.1 39.83 4.96 36.6 3.53 C33.38 2.1 29.87 1.41
						 26.35 1.51 C19.17 1.79 12.39 4.91 7.5 10.17 C2.61 15.43 0 22.42 0.25 29.6 C0.25 43.64 10.17 52.27 19.76
						 60.61 C20.86 61.57 21.97 62.53 23.08 63.52 L27.07 67.09 C31.43 71.24 36 75.16 40.76 78.83 C42.02 79.65 43.49
						 80.08 44.99 80.08 C46.49 80.08 47.96 79.65 49.22 78.83 C54.14 75.04 58.85 71 63.33 66.71 L66.92 63.51 C68.06
						 62.49 69.22 61.49 70.36 60.49 C79.44 52.61 89.74 43.68 89.74 29.6 C89.99 22.42 87.38 15.43 82.49 10.17 C77.59
						 4.91 70.82 1.79 63.64 1.51 Z" class="st1"/>
		</g>
	</g>
</svg>
