<svg width="22" height="22" viewBox="0 0 22 22" fill="none" xmlns="http://www.w3.org/2000/svg">
<path d="M11.0032 1.00098C12.3032 0.959238 13.5984 1.17924 14.8117 1.64792C16.025 2.11661 17.1318 2.8244 18.0661 3.72925C19.0005 4.63411 19.7435 5.71755 20.2508 6.91521C20.7582 8.11286 21.0197 9.40029 21.0197 10.701C21.0197 12.0017 20.7582 13.2891 20.2508 14.4868C19.7435 15.6844 19.0005 16.7679 18.0661 17.6727C17.1318 18.5776 16.025 19.2854 14.8117 19.754C13.5984 20.2227 12.3032 20.4427 11.0032 20.401C10.0253 20.4037 9.05155 20.2745 8.1082 20.017C7.93122 19.9687 7.74299 19.9828 7.5752 20.057L5.5912 20.933C5.47124 20.9857 5.34016 21.0082 5.20947 20.9985C5.07878 20.9888 4.95247 20.9472 4.84162 20.8773C4.73076 20.8074 4.63875 20.7114 4.57364 20.5977C4.50854 20.4839 4.47233 20.356 4.4682 20.225L4.4142 18.445C4.40969 18.3369 4.38346 18.2308 4.33708 18.133C4.29069 18.0353 4.22509 17.9478 4.1442 17.876C3.14037 16.9724 2.341 15.8649 1.7995 14.6275C1.25801 13.3902 0.986864 12.0515 1.0042 10.701C0.996599 9.39953 1.25234 8.10999 1.75603 6.90993C2.25972 5.70987 3.00096 4.6241 3.93515 3.71794C4.86934 2.81178 5.97717 2.10395 7.19201 1.63703C8.40685 1.17011 9.70258 0.953758 11.0032 1.00098Z" fill="white" stroke="black" stroke-width="1.739" stroke-miterlimit="10"/>
</svg>
